<?xml version="1.0" standalone="no"?>
<!DOCTYPE svg PUBLIC "-//W3C//DTD SVG 20010904//EN"
 "http://www.w3.org/TR/2001/REC-SVG-20010904/DTD/svg10.dtd">
<svg version="1.0" xmlns="http://www.w3.org/2000/svg"
 width="512.000000pt" height="512.000000pt" viewBox="0 0 512.000000 512.000000"
 preserveAspectRatio="xMidYMid meet">
<metadata>
Created by potrace 1.14, written by Peter Selinger 2001-2017
</metadata>
<g transform="translate(0.000000,512.000000) scale(0.100000,-0.100000)"
fill="#000000" stroke="none">
<path d="M3309 5083 c-13 -21 -33 -49 -46 -62 -12 -13 -20 -27 -17 -32 8 -14
44 -10 44 5 0 7 18 34 40 59 44 50 50 67 21 67 -12 0 -28 -15 -42 -37z"/>
<path d="M3471 5024 c-12 -52 -20 -98 -17 -101 14 -15 34 10 44 58 31 136 31
139 13 139 -12 0 -22 -22 -40 -96z"/>
<path d="M3868 5096 c-27 -28 -31 -34 -88 -164 -43 -99 -51 -132 -34 -139 6
-2 24 26 40 63 53 121 109 228 119 227 6 -1 18 -23 29 -49 16 -43 18 -69 13
-206 -4 -121 -2 -158 8 -161 24 -10 34 230 14 353 -16 98 -51 125 -101 76z"/>
<path d="M3046 4569 c-52 -159 -61 -227 -61 -457 l0 -204 -40 6 c-243 33 -444
3 -633 -95 -59 -31 -107 -49 -128 -49 -38 0 -147 -28 -209 -54 -36 -15 -175
-140 -175 -158 0 -4 -16 -24 -35 -45 -19 -21 -35 -42 -35 -46 0 -5 -11 -23
-23 -40 -41 -55 -50 -92 -44 -171 4 -63 2 -78 -15 -107 -30 -48 -64 -147 -72
-205 -4 -27 -2 -74 5 -104 19 -94 21 -272 4 -347 -9 -37 -23 -75 -31 -84 -9
-10 -23 -33 -32 -51 -20 -39 -66 -63 -137 -72 -172 -22 -268 -38 -365 -63 -30
-8 -66 -16 -79 -19 -33 -7 -139 -52 -181 -77 -93 -56 -167 -140 -210 -240 -25
-59 -34 -131 -19 -159 11 -21 13 -18 25 41 8 36 20 80 29 98 8 18 22 48 30 66
45 97 214 207 375 242 8 2 42 10 75 18 63 15 136 28 270 47 96 14 172 47 208
89 31 37 36 38 30 8 -4 -21 -64 -71 -87 -73 -6 0 -28 -8 -48 -17 -21 -8 -59
-19 -85 -22 -26 -4 -70 -14 -98 -22 -27 -9 -70 -19 -95 -24 -62 -11 -143 -28
-155 -33 -34 -11 -124 -51 -194 -85 -39 -19 -151 -127 -167 -162 -7 -13 -18
-42 -27 -64 -8 -22 -24 -64 -36 -94 -12 -29 -21 -60 -21 -68 0 -19 87 -191
117 -230 13 -18 30 -33 37 -33 22 0 43 -32 63 -95 l20 -59 45 47 c32 32 54 47
72 47 15 0 26 6 26 13 0 7 14 26 30 42 26 25 32 27 40 15 5 -8 10 -20 10 -27
0 -6 30 -33 68 -60 95 -70 93 -69 109 -48 7 11 13 13 13 7 0 -7 3 -11 8 -10 4
1 65 -26 136 -61 l130 -64 92 1 c105 1 115 -6 88 -64 -19 -39 -97 -84 -147
-84 -35 0 -25 -20 12 -23 32 -2 26 -31 -15 -67 -34 -29 -40 -31 -108 -29 -39
1 -99 -2 -132 -6 -42 -5 -64 -4 -68 4 -5 8 -13 8 -27 1 -25 -14 -25 -30 0 -30
11 0 22 -8 25 -17 10 -28 257 -195 330 -223 27 -10 28 -9 24 15 -3 14 -2 28 3
30 4 3 15 29 25 58 9 28 20 57 24 62 4 6 19 43 34 83 14 40 40 101 57 135 17
34 37 75 45 90 8 16 14 39 14 52 0 18 4 23 15 19 12 -5 15 2 15 30 0 36 0 36
108 87 150 71 170 82 211 112 l25 18 48 -97 c27 -53 60 -126 74 -161 28 -76
31 -70 -78 -172 -37 -34 -75 -81 -86 -104 -42 -92 -44 -103 -34 -180 9 -70 12
-75 61 -123 41 -39 54 -59 63 -102 7 -28 17 -51 22 -49 6 2 19 24 29 49 l19
46 -41 68 c-34 56 -41 77 -41 119 0 62 11 75 67 75 106 0 217 81 254 185 41
116 7 323 -76 460 -58 97 -43 176 38 192 15 3 30 10 33 14 9 15 61 10 74 -7
12 -13 16 -12 36 9 20 22 22 29 12 61 -6 20 -9 38 -6 41 3 3 38 15 79 26 40
12 91 30 113 42 64 32 235 147 278 185 l38 34 0 -111 c0 -101 2 -116 27 -162
24 -47 25 -54 13 -88 -7 -20 -26 -51 -43 -69 -17 -17 -28 -32 -24 -32 18 0
-48 -91 -129 -180 -44 -48 -139 -191 -170 -258 -22 -47 -26 -69 -27 -156 -1
-142 7 -177 54 -230 77 -87 170 -106 328 -66 134 34 146 35 184 26 34 -9 37
-12 37 -47 0 -32 -7 -42 -52 -80 -96 -82 -129 -112 -125 -115 6 -6 136 40 256
91 71 30 111 52 111 62 0 28 -30 118 -53 157 -22 40 -147 135 -178 136 -8 0
-19 4 -25 8 -5 5 -28 14 -50 21 -67 21 -95 50 -101 102 -5 42 -3 47 18 52 45
12 268 134 313 171 84 68 100 98 111 205 l10 96 35 -1 c48 -1 227 -42 259 -58
15 -8 47 -49 74 -94 26 -44 54 -82 62 -86 8 -3 15 -17 15 -32 0 -14 16 -53 35
-85 19 -33 35 -65 35 -71 0 -19 33 -88 42 -88 26 0 13 43 -46 160 -36 72 -66
136 -66 141 0 6 -18 36 -40 68 -22 31 -40 62 -40 68 0 6 -6 18 -14 26 -12 12
-7 18 35 43 90 52 168 209 155 313 -12 105 -51 198 -129 307 -43 62 -106 309
-121 474 -4 36 -11 90 -16 120 -12 70 -19 122 -25 185 -3 28 -7 68 -10 90 -2
22 -7 96 -10 165 -13 265 -28 325 -106 413 -36 41 -145 107 -177 107 -20 0
-14 10 38 67 118 129 204 261 270 417 28 66 39 101 32 108 -16 16 -29 1 -47
-55 -35 -107 -128 -268 -246 -427 -75 -101 -77 -103 -130 -91 -24 6 -67 11
-96 11 -60 0 -73 12 -46 43 11 12 27 42 37 67 10 25 33 79 51 120 18 41 40 99
49 127 10 29 21 55 26 58 5 3 16 28 26 57 9 28 30 78 46 111 30 60 58 132 58
148 0 25 -28 2 -47 -39 -51 -109 -116 -259 -123 -287 -4 -16 -22 -61 -38 -100
-17 -38 -49 -116 -72 -172 -23 -57 -45 -103 -49 -103 -5 0 -35 18 -59 36 -2 1
6 34 18 73 25 87 85 316 111 431 11 47 29 122 40 168 11 45 17 87 14 92 -12
19 -35 10 -35 -12 0 -22 -51 -243 -112 -483 -16 -66 -36 -148 -43 -183 -6 -34
-14 -64 -16 -67 -3 -2 -28 7 -57 20 -29 13 -55 25 -57 25 -42 5 -68 16 -77 33
-7 14 -9 73 -5 181 7 208 51 431 111 569 6 13 3 17 -12 17 -17 0 -26 -19 -56
-111z m-1029 -936 c-90 -132 -93 -171 -15 -191 104 -26 102 -27 141 36 20 31
63 84 97 117 56 55 61 57 54 31 -4 -16 -7 -66 -8 -112 -1 -119 -9 -115 217
-117 195 -2 210 -7 117 -39 -43 -15 -112 -27 -265 -47 -38 -5 -77 -12 -86 -16
-12 -5 -21 8 -38 55 -23 62 -23 62 -42 41 -10 -11 -19 -27 -19 -34 0 -16 -28
-23 -135 -33 -38 -4 -85 -13 -103 -20 -32 -13 -33 -12 -51 17 l-19 31 -28 -48
c-28 -48 -42 -110 -43 -196 -1 -27 -5 -48 -9 -48 -15 0 -48 54 -61 100 -7 25
-17 55 -22 68 -24 62 5 150 84 255 108 144 199 219 275 226 6 0 -12 -34 -41
-76z m753 -209 c15 -39 12 -49 -10 -29 -21 19 -27 55 -10 55 6 0 15 -12 20
-26z m82 -279 c19 -27 48 -71 66 -96 35 -51 155 -178 189 -201 22 -14 28 -44
48 -243 6 -65 25 -206 36 -264 5 -30 9 -79 9 -110 0 -49 -5 -62 -38 -105 -72
-96 -349 -295 -431 -311 -12 -2 -25 -7 -31 -10 -11 -7 -111 -30 -220 -50 -78
-15 -212 -19 -242 -7 -9 4 -46 44 -82 90 -110 140 -194 274 -231 371 -33 87
-34 94 -20 121 8 16 15 35 15 43 0 7 8 22 18 33 9 11 19 26 21 34 5 20 1 102
-6 112 -3 5 3 18 12 28 16 17 19 18 33 3 14 -14 14 -17 -1 -28 -21 -15 -14
-66 13 -90 17 -16 20 -15 34 14 9 16 15 40 13 53 -1 17 3 22 16 20 10 -2 17 3
17 13 0 19 -68 95 -85 95 -8 0 -27 -11 -43 -25 -17 -14 -33 -22 -35 -18 -10
17 -19 194 -12 242 6 43 9 49 23 42 34 -17 182 -41 247 -40 80 2 83 16 15 63
-31 22 -54 49 -74 89 -16 32 -27 60 -24 62 3 3 21 -15 40 -40 60 -77 123 -117
271 -175 46 -18 80 -23 158 -24 54 -1 99 2 99 5 0 4 55 9 123 13 67 4 134 9
148 12 l26 5 -50 77 c-46 70 -107 207 -107 241 0 18 1 17 42 -44z m676 -442
c39 -24 54 -75 46 -156 -7 -77 -16 -101 -45 -130 -17 -16 -19 -16 -28 1 -12
23 -51 190 -58 251 -8 63 21 75 85 34z m-1485 -193 c-5 -20 -23 -38 -23 -23 1
22 13 52 20 48 5 -3 6 -14 3 -25z m1271 -678 c-8 -159 -1 -186 45 -179 57 9
105 50 136 114 14 28 18 31 34 21 21 -13 31 -71 31 -185 0 -75 -8 -87 -36 -58
-9 8 -27 18 -40 21 -37 9 -142 -47 -200 -106 -27 -28 -52 -46 -57 -41 -5 5 -2
30 6 57 16 55 8 94 -20 94 -9 0 -44 -21 -77 -47 l-61 -48 36 50 c55 77 96 165
103 220 3 27 22 79 41 116 19 38 35 77 35 88 0 12 7 21 15 21 14 0 15 -17 9
-138z m-1899 -178 c-63 -38 -101 -76 -151 -150 -38 -58 -64 -123 -64 -165 0
-16 -3 -29 -6 -29 -10 0 -47 22 -91 56 -24 18 -51 37 -59 42 -14 8 -14 12 1
43 62 119 201 216 345 238 80 12 87 2 25 -35z m565 -308 c0 -2 -7 -7 -16 -10
-8 -3 -12 -2 -9 4 6 10 25 14 25 6z m-115 -56 c-3 -5 -12 -10 -18 -10 -7 0 -6
4 3 10 19 12 23 12 15 0z"/>
<path d="M2469 2753 c-13 -16 -12 -17 4 -4 16 13 21 21 13 21 -2 0 -10 -8 -17
-17z"/>
<path d="M2500 2743 c-17 -7 -87 -79 -101 -105 -14 -25 -11 -58 5 -58 7 0 29
19 49 43 21 25 49 46 71 53 34 11 35 10 30 -13 -6 -21 -4 -22 24 -17 16 3 32
1 36 -4 9 -14 -21 -42 -45 -42 -15 0 -19 -7 -19 -31 0 -55 64 -119 120 -119
12 0 19 -4 16 -9 -3 -4 2 -17 10 -27 14 -18 15 -16 10 19 -3 20 -1 35 4 32 5
-3 15 2 23 10 9 8 20 15 26 15 6 0 11 6 11 13 0 8 9 22 20 32 11 10 20 23 20
29 0 13 29 33 80 56 l34 16 -54 18 c-30 10 -69 29 -87 42 -17 13 -41 24 -52
24 -11 0 -32 5 -48 11 -32 12 -160 20 -183 12z m287 -127 c-3 -8 -9 -31 -13
-51 -5 -28 -14 -40 -45 -55 -49 -25 -101 -26 -123 -2 -15 18 -15 20 2 35 16
14 24 15 51 6 39 -14 61 1 61 41 0 30 10 38 49 39 16 1 21 -3 18 -13z m-97
-26 c0 -5 -4 -10 -10 -10 -5 0 -10 5 -10 10 0 6 5 10 10 10 6 0 10 -4 10 -10z"/>
<path d="M2740 2460 c0 -9 31 -30 44 -30 4 0 1 9 -6 20 -13 21 -38 27 -38 10z"/>
<path d="M1971 2418 c5 -10 12 -18 14 -18 3 0 5 8 5 18 0 10 -7 19 -14 19 -11
0 -13 -5 -5 -19z"/>
<path d="M2150 2232 c0 -15 24 -32 47 -32 33 0 28 16 -8 29 -38 13 -39 13 -39
3z"/>
<path d="M3605 958 c-2 -7 -11 -44 -20 -82 -15 -64 -15 -73 0 -140 25 -108 26
-109 37 -98 6 6 5 25 -3 53 -29 106 -28 146 7 262 3 9 0 17 -6 17 -6 0 -12 -6
-15 -12z"/>
<path d="M594 933 c-4 -16 -22 -62 -41 -103 -20 -41 -39 -84 -45 -95 -10 -23
17 -158 50 -255 27 -76 47 -136 65 -195 24 -75 85 -242 97 -265 6 -11 17 -20
25 -20 19 0 19 2 -1 48 -26 59 -125 344 -133 382 -5 19 -22 74 -38 121 -17 47
-34 104 -38 127 -7 43 -5 48 48 142 27 49 45 140 28 140 -6 0 -14 -12 -17 -27z"/>
<path d="M1800 844 c0 -89 -3 -107 -26 -150 -40 -75 -65 -147 -54 -158 5 -5
27 29 57 90 47 96 48 102 48 189 0 52 -6 98 -12 110 -10 16 -12 2 -13 -81z"/>
<path d="M4317 754 c-4 -4 -4 -17 -1 -29 8 -31 -57 -138 -123 -202 -48 -47
-67 -83 -45 -83 5 0 17 -27 27 -61 19 -61 19 -61 -2 -78 -25 -19 -42 -108 -42
-224 -1 -62 2 -77 14 -77 11 0 15 13 15 53 0 28 3 89 7 135 6 78 8 84 35 100
18 10 27 23 24 32 -2 8 -15 44 -27 79 l-23 64 40 36 c53 47 89 98 120 166 20
46 22 59 12 75 -13 21 -21 24 -31 14z"/>
<path d="M921 621 c-11 -7 -11 -16 -2 -43 6 -19 14 -44 16 -54 20 -86 121
-306 171 -371 13 -17 24 -34 24 -38 0 -19 78 -114 93 -115 21 0 28 -12 -78
150 -45 69 -88 143 -97 165 -9 22 -27 67 -41 100 -14 33 -36 95 -49 137 -18
58 -27 75 -37 69z"/>
<path d="M3713 292 c-8 -5 -9 -13 -3 -22 6 -8 10 -72 10 -142 0 -73 4 -128 9
-128 16 0 35 217 20 222 -5 2 -9 18 -11 36 -3 37 -8 44 -25 34z"/>
<path d="M1482 186 c-13 -41 -29 -99 -36 -130 -12 -51 -12 -56 3 -56 13 0 23
26 45 121 32 137 23 180 -12 65z"/>
<path d="M1550 178 c-6 -24 -13 -50 -16 -58 -3 -8 -8 -39 -11 -67 -4 -44 -2
-53 11 -53 9 0 16 4 16 9 0 17 30 179 36 195 4 10 1 16 -10 16 -10 0 -19 -15
-26 -42z"/>
</g>
</svg>
